# xmcd CD database file
#
# Track frame offsets:
#	150
#	5716
#	25927
#	46271
#	60733
#	78425
#	92893
#	116847
#	134634
#	155965
#	175012
#	196335
#	218434
#	239332
#	263919
#	280374
#
# Disc length: 3989 seconds
#
# Revision: 2
# Processed by: cddbd v1.5.2PL0 Copyright (c) Steve Scherf et al.
# Submitted via: CDex 1.60beta1-cs1
#
DISCID=e80f9310
DTITLE=ZEEBRA - World of Music
DYEAR=2006
DGENRE=JHip-Hop
TTITLE0=World of Music (intro)
TTITLE1=運命
TTITLE2=Reason (Let U Know) feat. Simon and D.O
TTITLE3=Top of the World
TTITLE4=Back Stage Boogie feat. Bes, 565 &Uzi
TTITLE5=Not Your Boyfriend Jesse(RIZE)
TTITLE6=We Leanin'
TTITLE7=Shinin' Like A Diamond feat. Sphere of Influence and May J.
TTITLE8=Stop Playin' A Wall
TTITLE9=This Is 4 The Locos feat. DS455 and Big Ron
TTITLE10=360 feat. OJ Flow, KM-Markit, Aktion, Braidz, Gotz and Uzi
TTITLE11=Lyrical Gunman
TTITLE12=Everybody Needs Love
TTITLE13=My People feat. 加藤ミリヤ
TTITLE14=雲の上のHeaven
TTITLE15=Last Song
EXTD=YEAR: 2006
EXTT0=
EXTT1=
EXTT2=
EXTT3=
EXTT4=
EXTT5=
EXTT6=
EXTT7=
EXTT8=
EXTT9=
EXTT10=
EXTT11=
EXTT12=
EXTT13=
EXTT14=
EXTT15=
PLAYORDER=
